G04 MADE WITH FRITZING*
G04 WWW.FRITZING.ORG*
G04 DOUBLE SIDED*
G04 HOLES PLATED*
G04 CONTOUR ON CENTER OF CONTOUR VECTOR*
%ASAXBY*%
%FSLAX23Y23*%
%MOIN*%
%OFA0B0*%
%SFA1.0B1.0*%
%ADD10C,0.074667*%
%ADD11C,0.074695*%
%ADD12C,0.124033*%
%ADD13C,0.065278*%
%ADD14C,0.065000*%
%ADD15C,0.075000*%
%ADD16C,0.024000*%
%LNCOPPER0*%
G90*
G70*
G54D10*
X2043Y1137D03*
X2143Y1137D03*
G54D11*
X2243Y1137D03*
G54D12*
X1949Y1432D03*
X2337Y1432D03*
G54D13*
X2102Y109D03*
X2202Y109D03*
X2303Y109D03*
X2403Y109D03*
X2503Y109D03*
X1642Y2009D03*
X1543Y2009D03*
X1442Y2009D03*
X1342Y2009D03*
X1242Y2009D03*
X1142Y2009D03*
X1042Y2009D03*
X942Y2009D03*
X842Y2009D03*
X742Y2009D03*
X2503Y2009D03*
X2403Y2009D03*
X2303Y2009D03*
X2202Y2009D03*
X2102Y2009D03*
X2003Y2009D03*
X1903Y2009D03*
X1802Y2009D03*
X1202Y109D03*
X1102Y109D03*
X1302Y109D03*
X1403Y109D03*
X1503Y109D03*
X1602Y109D03*
X1702Y109D03*
X1802Y109D03*
X2003Y109D03*
G54D14*
X1742Y845D03*
X1742Y767D03*
X1742Y688D03*
X1742Y609D03*
G54D15*
X1342Y1509D03*
X1342Y1109D03*
X1442Y1509D03*
X1442Y1109D03*
X1542Y1509D03*
X1542Y1109D03*
G54D16*
X1342Y1989D02*
X1342Y1527D01*
D02*
X1442Y1989D02*
X1442Y1527D01*
D02*
X1543Y1989D02*
X1542Y1527D01*
D02*
X1342Y658D02*
X1342Y1092D01*
D02*
X1394Y609D02*
X1342Y658D01*
D02*
X1730Y609D02*
X1394Y609D01*
D02*
X1445Y745D02*
X1443Y1092D01*
D02*
X1491Y689D02*
X1445Y745D01*
D02*
X1730Y688D02*
X1491Y689D01*
D02*
X1542Y909D02*
X1542Y1092D01*
D02*
X1576Y847D02*
X1542Y909D01*
D02*
X1730Y845D02*
X1576Y847D01*
D02*
X2032Y761D02*
X1755Y766D01*
D02*
X2042Y1116D02*
X2032Y761D01*
D02*
X1742Y358D02*
X1694Y310D01*
D02*
X1994Y358D02*
X1742Y358D01*
D02*
X1694Y310D02*
X1702Y129D01*
D02*
X2042Y410D02*
X1994Y358D01*
D02*
X2032Y761D02*
X2042Y410D01*
D02*
X1994Y258D02*
X2042Y310D01*
D02*
X2142Y358D02*
X2143Y1116D01*
D02*
X2094Y310D02*
X2142Y358D01*
D02*
X2042Y310D02*
X2094Y310D01*
D02*
X2001Y129D02*
X1994Y258D01*
G04 End of Copper0*
M02*