G04 MADE WITH FRITZING*
G04 WWW.FRITZING.ORG*
G04 DOUBLE SIDED*
G04 HOLES PLATED*
G04 CONTOUR ON CENTER OF CONTOUR VECTOR*
%ASAXBY*%
%FSLAX23Y23*%
%MOIN*%
%OFA0B0*%
%SFA1.0B1.0*%
%ADD10C,0.084667*%
%ADD11C,0.084695*%
%ADD12C,0.134033*%
%ADD13C,0.075278*%
%ADD14C,0.075000*%
%ADD15C,0.085000*%
%LNMASK0*%
G90*
G70*
G54D10*
X2043Y1137D03*
X2143Y1137D03*
G54D11*
X2243Y1137D03*
G54D12*
X1949Y1432D03*
X2337Y1432D03*
G54D13*
X2102Y109D03*
X2202Y109D03*
X2303Y109D03*
X2403Y109D03*
X2503Y109D03*
X1642Y2009D03*
X1543Y2009D03*
X1442Y2009D03*
X1342Y2009D03*
X1242Y2009D03*
X1142Y2009D03*
X1042Y2009D03*
X942Y2009D03*
X842Y2009D03*
X742Y2009D03*
X2503Y2009D03*
X2403Y2009D03*
X2303Y2009D03*
X2202Y2009D03*
X2102Y2009D03*
X2003Y2009D03*
X1903Y2009D03*
X1802Y2009D03*
X1202Y109D03*
X1102Y109D03*
X1302Y109D03*
X1403Y109D03*
X1503Y109D03*
X1602Y109D03*
X1702Y109D03*
X1802Y109D03*
X2003Y109D03*
G54D14*
X1742Y845D03*
X1742Y767D03*
X1742Y688D03*
X1742Y609D03*
G54D15*
X1342Y1509D03*
X1342Y1109D03*
X1442Y1509D03*
X1442Y1109D03*
X1542Y1509D03*
X1542Y1109D03*
G04 End of Mask0*
M02*