; NON-PLATED HOLES START AT T1
; THROUGH (PLATED) HOLES START AT T100
M48
INCH
T100C0.035000
T101C0.041333
T102C0.041361
T103C0.025000
T104C0.088356
T105C0.040278
%
T100
X015424Y011091
X015424Y015091
X014424Y011091
X013424Y015091
X013424Y011091
X014424Y015091
T101
X020428Y011367
X021428Y011367
T102
X022428Y011367
T103
X017424Y007665
X017424Y006879
X017424Y006091
X017424Y008453
T104
X023370Y014320
X019487Y014320
T105
X015425Y020091
X013424Y020091
X021024Y020091
X016424Y020091
X024025Y020091
X012424Y020091
X022024Y001091
X014424Y020091
X023025Y001091
X020025Y001091
X007424Y020091
X025025Y001091
X024025Y001091
X022024Y020091
X017024Y001091
X021024Y001091
X009424Y020091
X025025Y020091
X019025Y020091
X020025Y020091
X023025Y020091
X011424Y020091
X010424Y020091
X018024Y001091
X011024Y001091
X014025Y001091
X013024Y001091
X015025Y001091
X008424Y020091
X016024Y001091
X012024Y001091
X018024Y020091
T00
M30
