<?xml version="1.0" encoding="UTF-8"?>
<svg xmlns="http://www.w3.org/2000/svg" xmlns:xlink="http://www.w3.org/1999/xlink" width="1500" height="1500" viewBox="0 0 1500 1500">
<path fill="none" stroke-width="1" stroke-linecap="round" stroke-linejoin="miter" stroke="rgb(0%, 100%, 100%)" stroke-opacity="1" stroke-miterlimit="10" d="M 1040.167969 568.5 L 1039.253906 574.269531 L 1036.601562 579.472656 L 1032.472656 583.601562 L 1027.269531 586.253906 L 1021.5 587.167969 L 1015.730469 586.253906 L 1010.527344 583.601562 L 1006.398438 579.472656 L 1003.746094 574.269531 L 1002.832031 568.5 L 1003.746094 562.730469 L 1006.398438 557.527344 L 1010.527344 553.398438 L 1015.730469 550.746094 L 1021.5 549.832031 L 1027.269531 550.746094 L 1032.472656 553.398438 L 1036.601562 557.527344 L 1039.253906 562.730469 L 1040.167969 568.5 "/>
<path fill="none" stroke-width="1" stroke-linecap="round" stroke-linejoin="miter" stroke="rgb(0%, 100%, 100%)" stroke-opacity="1" stroke-miterlimit="10" d="M 1090.167969 568.5 L 1089.253906 574.269531 L 1086.601562 579.472656 L 1082.472656 583.601562 L 1077.269531 586.253906 L 1071.5 587.167969 L 1065.730469 586.253906 L 1060.527344 583.601562 L 1056.398438 579.472656 L 1053.746094 574.269531 L 1052.832031 568.5 L 1053.746094 562.730469 L 1056.398438 557.527344 L 1060.527344 553.398438 L 1065.730469 550.746094 L 1071.5 549.832031 L 1077.269531 550.746094 L 1082.472656 553.398438 L 1086.601562 557.527344 L 1089.253906 562.730469 L 1090.167969 568.5 "/>
<path fill="none" stroke-width="1" stroke-linecap="round" stroke-linejoin="miter" stroke="rgb(0%, 100%, 100%)" stroke-opacity="1" stroke-miterlimit="10" d="M 1140.171875 568.5 L 1139.261719 574.269531 L 1136.605469 579.476562 L 1132.476562 583.605469 L 1127.269531 586.261719 L 1121.5 587.171875 L 1115.730469 586.261719 L 1110.523438 583.605469 L 1106.394531 579.476562 L 1103.738281 574.269531 L 1102.828125 568.5 L 1103.738281 562.730469 L 1106.394531 557.523438 L 1110.523438 553.394531 L 1115.730469 550.738281 L 1121.5 549.828125 L 1127.269531 550.738281 L 1132.476562 553.394531 L 1136.605469 557.523438 L 1139.261719 562.730469 L 1140.171875 568.5 "/>
<path fill="none" stroke-width="1" stroke-linecap="round" stroke-linejoin="miter" stroke="rgb(0%, 100%, 100%)" stroke-opacity="1" stroke-miterlimit="10" d="M 1005.507812 716 L 1003.992188 725.582031 L 999.585938 734.226562 L 992.726562 741.085938 L 984.082031 745.492188 L 974.5 747.007812 L 964.917969 745.492188 L 956.273438 741.085938 L 949.414062 734.226562 L 945.007812 725.582031 L 943.492188 716 L 945.007812 706.417969 L 949.414062 697.773438 L 956.273438 690.914062 L 964.917969 686.507812 L 974.5 684.992188 L 984.082031 686.507812 L 992.726562 690.914062 L 999.585938 697.773438 L 1003.992188 706.417969 L 1005.507812 716 "/>
<path fill="none" stroke-width="1" stroke-linecap="round" stroke-linejoin="miter" stroke="rgb(0%, 100%, 100%)" stroke-opacity="1" stroke-miterlimit="10" d="M 1199.507812 716 L 1197.992188 725.582031 L 1193.585938 734.226562 L 1186.726562 741.085938 L 1178.082031 745.492188 L 1168.5 747.007812 L 1158.917969 745.492188 L 1150.273438 741.085938 L 1143.414062 734.226562 L 1139.007812 725.582031 L 1137.492188 716 L 1139.007812 706.417969 L 1143.414062 697.773438 L 1150.273438 690.914062 L 1158.917969 686.507812 L 1168.5 684.992188 L 1178.082031 686.507812 L 1186.726562 690.914062 L 1193.585938 697.773438 L 1197.992188 706.417969 L 1199.507812 716 "/>
<path fill="none" stroke-width="1" stroke-linecap="round" stroke-linejoin="miter" stroke="rgb(0%, 100%, 100%)" stroke-opacity="1" stroke-miterlimit="10" d="M 1067.320312 54.5 L 1066.519531 59.542969 L 1064.203125 64.09375 L 1060.59375 67.703125 L 1056.042969 70.019531 L 1051 70.820312 L 1045.957031 70.019531 L 1041.40625 67.703125 L 1037.796875 64.09375 L 1035.480469 59.542969 L 1034.679688 54.5 L 1035.480469 49.457031 L 1037.796875 44.90625 L 1041.40625 41.296875 L 1045.957031 38.980469 L 1051 38.179688 L 1056.042969 38.980469 L 1060.59375 41.296875 L 1064.203125 44.90625 L 1066.519531 49.457031 L 1067.320312 54.5 "/>
<path fill="none" stroke-width="1" stroke-linecap="round" stroke-linejoin="miter" stroke="rgb(0%, 100%, 100%)" stroke-opacity="1" stroke-miterlimit="10" d="M 1117.320312 54.5 L 1116.519531 59.542969 L 1114.203125 64.09375 L 1110.59375 67.703125 L 1106.042969 70.019531 L 1101 70.820312 L 1095.957031 70.019531 L 1091.40625 67.703125 L 1087.796875 64.09375 L 1085.480469 59.542969 L 1084.679688 54.5 L 1085.480469 49.457031 L 1087.796875 44.90625 L 1091.40625 41.296875 L 1095.957031 38.980469 L 1101 38.179688 L 1106.042969 38.980469 L 1110.59375 41.296875 L 1114.203125 44.90625 L 1116.519531 49.457031 L 1117.320312 54.5 "/>
<path fill="none" stroke-width="1" stroke-linecap="round" stroke-linejoin="miter" stroke="rgb(0%, 100%, 100%)" stroke-opacity="1" stroke-miterlimit="10" d="M 1167.820312 54.5 L 1167.019531 59.542969 L 1164.703125 64.09375 L 1161.09375 67.703125 L 1156.542969 70.019531 L 1151.5 70.820312 L 1146.457031 70.019531 L 1141.90625 67.703125 L 1138.296875 64.09375 L 1135.980469 59.542969 L 1135.179688 54.5 L 1135.980469 49.457031 L 1138.296875 44.90625 L 1141.90625 41.296875 L 1146.457031 38.980469 L 1151.5 38.179688 L 1156.542969 38.980469 L 1161.09375 41.296875 L 1164.703125 44.90625 L 1167.019531 49.457031 L 1167.820312 54.5 "/>
<path fill="none" stroke-width="1" stroke-linecap="round" stroke-linejoin="miter" stroke="rgb(0%, 100%, 100%)" stroke-opacity="1" stroke-miterlimit="10" d="M 1217.820312 54.5 L 1217.019531 59.542969 L 1214.703125 64.09375 L 1211.09375 67.703125 L 1206.542969 70.019531 L 1201.5 70.820312 L 1196.457031 70.019531 L 1191.90625 67.703125 L 1188.296875 64.09375 L 1185.980469 59.542969 L 1185.179688 54.5 L 1185.980469 49.457031 L 1188.296875 44.90625 L 1191.90625 41.296875 L 1196.457031 38.980469 L 1201.5 38.179688 L 1206.542969 38.980469 L 1211.09375 41.296875 L 1214.703125 44.90625 L 1217.019531 49.457031 L 1217.820312 54.5 "/>
<path fill="none" stroke-width="1" stroke-linecap="round" stroke-linejoin="miter" stroke="rgb(0%, 100%, 100%)" stroke-opacity="1" stroke-miterlimit="10" d="M 1267.820312 54.5 L 1267.019531 59.542969 L 1264.703125 64.09375 L 1261.09375 67.703125 L 1256.542969 70.019531 L 1251.5 70.820312 L 1246.457031 70.019531 L 1241.90625 67.703125 L 1238.296875 64.09375 L 1235.980469 59.542969 L 1235.179688 54.5 L 1235.980469 49.457031 L 1238.296875 44.90625 L 1241.90625 41.296875 L 1246.457031 38.980469 L 1251.5 38.179688 L 1256.542969 38.980469 L 1261.09375 41.296875 L 1264.703125 44.90625 L 1267.019531 49.457031 L 1267.820312 54.5 "/>
<path fill="none" stroke-width="1" stroke-linecap="round" stroke-linejoin="miter" stroke="rgb(0%, 100%, 100%)" stroke-opacity="1" stroke-miterlimit="10" d="M 837.320312 1004.5 L 836.519531 1009.542969 L 834.203125 1014.09375 L 830.59375 1017.703125 L 826.042969 1020.019531 L 821 1020.820312 L 815.957031 1020.019531 L 811.40625 1017.703125 L 807.796875 1014.09375 L 805.480469 1009.542969 L 804.679688 1004.5 L 805.480469 999.457031 L 807.796875 994.90625 L 811.40625 991.296875 L 815.957031 988.980469 L 821 988.179688 L 826.042969 988.980469 L 830.59375 991.296875 L 834.203125 994.90625 L 836.519531 999.457031 L 837.320312 1004.5 "/>
<path fill="none" stroke-width="1" stroke-linecap="round" stroke-linejoin="miter" stroke="rgb(0%, 100%, 100%)" stroke-opacity="1" stroke-miterlimit="10" d="M 787.820312 1004.5 L 787.019531 1009.542969 L 784.703125 1014.09375 L 781.09375 1017.703125 L 776.542969 1020.019531 L 771.5 1020.820312 L 766.457031 1020.019531 L 761.90625 1017.703125 L 758.296875 1014.09375 L 755.980469 1009.542969 L 755.179688 1004.5 L 755.980469 999.457031 L 758.296875 994.90625 L 761.90625 991.296875 L 766.457031 988.980469 L 771.5 988.179688 L 776.542969 988.980469 L 781.09375 991.296875 L 784.703125 994.90625 L 787.019531 999.457031 L 787.820312 1004.5 "/>
<path fill="none" stroke-width="1" stroke-linecap="round" stroke-linejoin="miter" stroke="rgb(0%, 100%, 100%)" stroke-opacity="1" stroke-miterlimit="10" d="M 737.320312 1004.5 L 736.519531 1009.542969 L 734.203125 1014.09375 L 730.59375 1017.703125 L 726.042969 1020.019531 L 721 1020.820312 L 715.957031 1020.019531 L 711.40625 1017.703125 L 707.796875 1014.09375 L 705.480469 1009.542969 L 704.679688 1004.5 L 705.480469 999.457031 L 707.796875 994.90625 L 711.40625 991.296875 L 715.957031 988.980469 L 721 988.179688 L 726.042969 988.980469 L 730.59375 991.296875 L 734.203125 994.90625 L 736.519531 999.457031 L 737.320312 1004.5 "/>
<path fill="none" stroke-width="1" stroke-linecap="round" stroke-linejoin="miter" stroke="rgb(0%, 100%, 100%)" stroke-opacity="1" stroke-miterlimit="10" d="M 687.320312 1004.5 L 686.519531 1009.542969 L 684.203125 1014.09375 L 680.59375 1017.703125 L 676.042969 1020.019531 L 671 1020.820312 L 665.957031 1020.019531 L 661.40625 1017.703125 L 657.796875 1014.09375 L 655.480469 1009.542969 L 654.679688 1004.5 L 655.480469 999.457031 L 657.796875 994.90625 L 661.40625 991.296875 L 665.957031 988.980469 L 671 988.179688 L 676.042969 988.980469 L 680.59375 991.296875 L 684.203125 994.90625 L 686.519531 999.457031 L 687.320312 1004.5 "/>
<path fill="none" stroke-width="1" stroke-linecap="round" stroke-linejoin="miter" stroke="rgb(0%, 100%, 100%)" stroke-opacity="1" stroke-miterlimit="10" d="M 637.320312 1004.5 L 636.519531 1009.542969 L 634.203125 1014.09375 L 630.59375 1017.703125 L 626.042969 1020.019531 L 621 1020.820312 L 615.957031 1020.019531 L 611.40625 1017.703125 L 607.796875 1014.09375 L 605.480469 1009.542969 L 604.679688 1004.5 L 605.480469 999.457031 L 607.796875 994.90625 L 611.40625 991.296875 L 615.957031 988.980469 L 621 988.179688 L 626.042969 988.980469 L 630.59375 991.296875 L 634.203125 994.90625 L 636.519531 999.457031 L 637.320312 1004.5 "/>
<path fill="none" stroke-width="1" stroke-linecap="round" stroke-linejoin="miter" stroke="rgb(0%, 100%, 100%)" stroke-opacity="1" stroke-miterlimit="10" d="M 587.320312 1004.5 L 586.519531 1009.542969 L 584.203125 1014.09375 L 580.59375 1017.703125 L 576.042969 1020.019531 L 571 1020.820312 L 565.957031 1020.019531 L 561.40625 1017.703125 L 557.796875 1014.09375 L 555.480469 1009.542969 L 554.679688 1004.5 L 555.480469 999.457031 L 557.796875 994.90625 L 561.40625 991.296875 L 565.957031 988.980469 L 571 988.179688 L 576.042969 988.980469 L 580.59375 991.296875 L 584.203125 994.90625 L 586.519531 999.457031 L 587.320312 1004.5 "/>
<path fill="none" stroke-width="1" stroke-linecap="round" stroke-linejoin="miter" stroke="rgb(0%, 100%, 100%)" stroke-opacity="1" stroke-miterlimit="10" d="M 537.320312 1004.5 L 536.519531 1009.542969 L 534.203125 1014.09375 L 530.59375 1017.703125 L 526.042969 1020.019531 L 521 1020.820312 L 515.957031 1020.019531 L 511.40625 1017.703125 L 507.796875 1014.09375 L 505.480469 1009.542969 L 504.679688 1004.5 L 505.480469 999.457031 L 507.796875 994.90625 L 511.40625 991.296875 L 515.957031 988.980469 L 521 988.179688 L 526.042969 988.980469 L 530.59375 991.296875 L 534.203125 994.90625 L 536.519531 999.457031 L 537.320312 1004.5 "/>
<path fill="none" stroke-width="1" stroke-linecap="round" stroke-linejoin="miter" stroke="rgb(0%, 100%, 100%)" stroke-opacity="1" stroke-miterlimit="10" d="M 487.320312 1004.5 L 486.519531 1009.542969 L 484.203125 1014.09375 L 480.59375 1017.703125 L 476.042969 1020.019531 L 471 1020.820312 L 465.957031 1020.019531 L 461.40625 1017.703125 L 457.796875 1014.09375 L 455.480469 1009.542969 L 454.679688 1004.5 L 455.480469 999.457031 L 457.796875 994.90625 L 461.40625 991.296875 L 465.957031 988.980469 L 471 988.179688 L 476.042969 988.980469 L 480.59375 991.296875 L 484.203125 994.90625 L 486.519531 999.457031 L 487.320312 1004.5 "/>
<path fill="none" stroke-width="1" stroke-linecap="round" stroke-linejoin="miter" stroke="rgb(0%, 100%, 100%)" stroke-opacity="1" stroke-miterlimit="10" d="M 437.320312 1004.5 L 436.519531 1009.542969 L 434.203125 1014.09375 L 430.59375 1017.703125 L 426.042969 1020.019531 L 421 1020.820312 L 415.957031 1020.019531 L 411.40625 1017.703125 L 407.796875 1014.09375 L 405.480469 1009.542969 L 404.679688 1004.5 L 405.480469 999.457031 L 407.796875 994.90625 L 411.40625 991.296875 L 415.957031 988.980469 L 421 988.179688 L 426.042969 988.980469 L 430.59375 991.296875 L 434.203125 994.90625 L 436.519531 999.457031 L 437.320312 1004.5 "/>
<path fill="none" stroke-width="1" stroke-linecap="round" stroke-linejoin="miter" stroke="rgb(0%, 100%, 100%)" stroke-opacity="1" stroke-miterlimit="10" d="M 387.320312 1004.5 L 386.519531 1009.542969 L 384.203125 1014.09375 L 380.59375 1017.703125 L 376.042969 1020.019531 L 371 1020.820312 L 365.957031 1020.019531 L 361.40625 1017.703125 L 357.796875 1014.09375 L 355.480469 1009.542969 L 354.679688 1004.5 L 355.480469 999.457031 L 357.796875 994.90625 L 361.40625 991.296875 L 365.957031 988.980469 L 371 988.179688 L 376.042969 988.980469 L 380.59375 991.296875 L 384.203125 994.90625 L 386.519531 999.457031 L 387.320312 1004.5 "/>
<path fill="none" stroke-width="1" stroke-linecap="round" stroke-linejoin="miter" stroke="rgb(0%, 100%, 100%)" stroke-opacity="1" stroke-miterlimit="10" d="M 1267.820312 1004.5 L 1267.019531 1009.542969 L 1264.703125 1014.09375 L 1261.09375 1017.703125 L 1256.542969 1020.019531 L 1251.5 1020.820312 L 1246.457031 1020.019531 L 1241.90625 1017.703125 L 1238.296875 1014.09375 L 1235.980469 1009.542969 L 1235.179688 1004.5 L 1235.980469 999.457031 L 1238.296875 994.90625 L 1241.90625 991.296875 L 1246.457031 988.980469 L 1251.5 988.179688 L 1256.542969 988.980469 L 1261.09375 991.296875 L 1264.703125 994.90625 L 1267.019531 999.457031 L 1267.820312 1004.5 "/>
<path fill="none" stroke-width="1" stroke-linecap="round" stroke-linejoin="miter" stroke="rgb(0%, 100%, 100%)" stroke-opacity="1" stroke-miterlimit="10" d="M 1217.820312 1004.5 L 1217.019531 1009.542969 L 1214.703125 1014.09375 L 1211.09375 1017.703125 L 1206.542969 1020.019531 L 1201.5 1020.820312 L 1196.457031 1020.019531 L 1191.90625 1017.703125 L 1188.296875 1014.09375 L 1185.980469 1009.542969 L 1185.179688 1004.5 L 1185.980469 999.457031 L 1188.296875 994.90625 L 1191.90625 991.296875 L 1196.457031 988.980469 L 1201.5 988.179688 L 1206.542969 988.980469 L 1211.09375 991.296875 L 1214.703125 994.90625 L 1217.019531 999.457031 L 1217.820312 1004.5 "/>
<path fill="none" stroke-width="1" stroke-linecap="round" stroke-linejoin="miter" stroke="rgb(0%, 100%, 100%)" stroke-opacity="1" stroke-miterlimit="10" d="M 1167.820312 1004.5 L 1167.019531 1009.542969 L 1164.703125 1014.09375 L 1161.09375 1017.703125 L 1156.542969 1020.019531 L 1151.5 1020.820312 L 1146.457031 1020.019531 L 1141.90625 1017.703125 L 1138.296875 1014.09375 L 1135.980469 1009.542969 L 1135.179688 1004.5 L 1135.980469 999.457031 L 1138.296875 994.90625 L 1141.90625 991.296875 L 1146.457031 988.980469 L 1151.5 988.179688 L 1156.542969 988.980469 L 1161.09375 991.296875 L 1164.703125 994.90625 L 1167.019531 999.457031 L 1167.820312 1004.5 "/>
<path fill="none" stroke-width="1" stroke-linecap="round" stroke-linejoin="miter" stroke="rgb(0%, 100%, 100%)" stroke-opacity="1" stroke-miterlimit="10" d="M 1117.320312 1004.5 L 1116.519531 1009.542969 L 1114.203125 1014.09375 L 1110.59375 1017.703125 L 1106.042969 1020.019531 L 1101 1020.820312 L 1095.957031 1020.019531 L 1091.40625 1017.703125 L 1087.796875 1014.09375 L 1085.480469 1009.542969 L 1084.679688 1004.5 L 1085.480469 999.457031 L 1087.796875 994.90625 L 1091.40625 991.296875 L 1095.957031 988.980469 L 1101 988.179688 L 1106.042969 988.980469 L 1110.59375 991.296875 L 1114.203125 994.90625 L 1116.519531 999.457031 L 1117.320312 1004.5 "/>
<path fill="none" stroke-width="1" stroke-linecap="round" stroke-linejoin="miter" stroke="rgb(0%, 100%, 100%)" stroke-opacity="1" stroke-miterlimit="10" d="M 1067.320312 1004.5 L 1066.519531 1009.542969 L 1064.203125 1014.09375 L 1060.59375 1017.703125 L 1056.042969 1020.019531 L 1051 1020.820312 L 1045.957031 1020.019531 L 1041.40625 1017.703125 L 1037.796875 1014.09375 L 1035.480469 1009.542969 L 1034.679688 1004.5 L 1035.480469 999.457031 L 1037.796875 994.90625 L 1041.40625 991.296875 L 1045.957031 988.980469 L 1051 988.179688 L 1056.042969 988.980469 L 1060.59375 991.296875 L 1064.203125 994.90625 L 1066.519531 999.457031 L 1067.320312 1004.5 "/>
<path fill="none" stroke-width="1" stroke-linecap="round" stroke-linejoin="miter" stroke="rgb(0%, 100%, 100%)" stroke-opacity="1" stroke-miterlimit="10" d="M 1017.820312 1004.5 L 1017.019531 1009.542969 L 1014.703125 1014.09375 L 1011.09375 1017.703125 L 1006.542969 1020.019531 L 1001.5 1020.820312 L 996.457031 1020.019531 L 991.90625 1017.703125 L 988.296875 1014.09375 L 985.980469 1009.542969 L 985.179688 1004.5 L 985.980469 999.457031 L 988.296875 994.90625 L 991.90625 991.296875 L 996.457031 988.980469 L 1001.5 988.179688 L 1006.542969 988.980469 L 1011.09375 991.296875 L 1014.703125 994.90625 L 1017.019531 999.457031 L 1017.820312 1004.5 "/>
<path fill="none" stroke-width="1" stroke-linecap="round" stroke-linejoin="miter" stroke="rgb(0%, 100%, 100%)" stroke-opacity="1" stroke-miterlimit="10" d="M 967.820312 1004.5 L 967.019531 1009.542969 L 964.703125 1014.09375 L 961.09375 1017.703125 L 956.542969 1020.019531 L 951.5 1020.820312 L 946.457031 1020.019531 L 941.90625 1017.703125 L 938.296875 1014.09375 L 935.980469 1009.542969 L 935.179688 1004.5 L 935.980469 999.457031 L 938.296875 994.90625 L 941.90625 991.296875 L 946.457031 988.980469 L 951.5 988.179688 L 956.542969 988.980469 L 961.09375 991.296875 L 964.703125 994.90625 L 967.019531 999.457031 L 967.820312 1004.5 "/>
<path fill="none" stroke-width="1" stroke-linecap="round" stroke-linejoin="miter" stroke="rgb(0%, 100%, 100%)" stroke-opacity="1" stroke-miterlimit="10" d="M 917.320312 1004.5 L 916.519531 1009.542969 L 914.203125 1014.09375 L 910.59375 1017.703125 L 906.042969 1020.019531 L 901 1020.820312 L 895.957031 1020.019531 L 891.40625 1017.703125 L 887.796875 1014.09375 L 885.480469 1009.542969 L 884.679688 1004.5 L 885.480469 999.457031 L 887.796875 994.90625 L 891.40625 991.296875 L 895.957031 988.980469 L 901 988.179688 L 906.042969 988.980469 L 910.59375 991.296875 L 914.203125 994.90625 L 916.519531 999.457031 L 917.320312 1004.5 "/>
<path fill="none" stroke-width="1" stroke-linecap="round" stroke-linejoin="miter" stroke="rgb(0%, 100%, 100%)" stroke-opacity="1" stroke-miterlimit="10" d="M 617.320312 54.5 L 616.519531 59.542969 L 614.203125 64.09375 L 610.59375 67.703125 L 606.042969 70.019531 L 601 70.820312 L 595.957031 70.019531 L 591.40625 67.703125 L 587.796875 64.09375 L 585.480469 59.542969 L 584.679688 54.5 L 585.480469 49.457031 L 587.796875 44.90625 L 591.40625 41.296875 L 595.957031 38.980469 L 601 38.179688 L 606.042969 38.980469 L 610.59375 41.296875 L 614.203125 44.90625 L 616.519531 49.457031 L 617.320312 54.5 "/>
<path fill="none" stroke-width="1" stroke-linecap="round" stroke-linejoin="miter" stroke="rgb(0%, 100%, 100%)" stroke-opacity="1" stroke-miterlimit="10" d="M 567.320312 54.5 L 566.519531 59.542969 L 564.203125 64.09375 L 560.59375 67.703125 L 556.042969 70.019531 L 551 70.820312 L 545.957031 70.019531 L 541.40625 67.703125 L 537.796875 64.09375 L 535.480469 59.542969 L 534.679688 54.5 L 535.480469 49.457031 L 537.796875 44.90625 L 541.40625 41.296875 L 545.957031 38.980469 L 551 38.179688 L 556.042969 38.980469 L 560.59375 41.296875 L 564.203125 44.90625 L 566.519531 49.457031 L 567.320312 54.5 "/>
<path fill="none" stroke-width="1" stroke-linecap="round" stroke-linejoin="miter" stroke="rgb(0%, 100%, 100%)" stroke-opacity="1" stroke-miterlimit="10" d="M 667.320312 54.5 L 666.519531 59.542969 L 664.203125 64.09375 L 660.59375 67.703125 L 656.042969 70.019531 L 651 70.820312 L 645.957031 70.019531 L 641.40625 67.703125 L 637.796875 64.09375 L 635.480469 59.542969 L 634.679688 54.5 L 635.480469 49.457031 L 637.796875 44.90625 L 641.40625 41.296875 L 645.957031 38.980469 L 651 38.179688 L 656.042969 38.980469 L 660.59375 41.296875 L 664.203125 44.90625 L 666.519531 49.457031 L 667.320312 54.5 "/>
<path fill="none" stroke-width="1" stroke-linecap="round" stroke-linejoin="miter" stroke="rgb(0%, 100%, 100%)" stroke-opacity="1" stroke-miterlimit="10" d="M 717.820312 54.5 L 717.019531 59.542969 L 714.703125 64.09375 L 711.09375 67.703125 L 706.542969 70.019531 L 701.5 70.820312 L 696.457031 70.019531 L 691.90625 67.703125 L 688.296875 64.09375 L 685.980469 59.542969 L 685.179688 54.5 L 685.980469 49.457031 L 688.296875 44.90625 L 691.90625 41.296875 L 696.457031 38.980469 L 701.5 38.179688 L 706.542969 38.980469 L 711.09375 41.296875 L 714.703125 44.90625 L 717.019531 49.457031 L 717.820312 54.5 "/>
<path fill="none" stroke-width="1" stroke-linecap="round" stroke-linejoin="miter" stroke="rgb(0%, 100%, 100%)" stroke-opacity="1" stroke-miterlimit="10" d="M 767.820312 54.5 L 767.019531 59.542969 L 764.703125 64.09375 L 761.09375 67.703125 L 756.542969 70.019531 L 751.5 70.820312 L 746.457031 70.019531 L 741.90625 67.703125 L 738.296875 64.09375 L 735.980469 59.542969 L 735.179688 54.5 L 735.980469 49.457031 L 738.296875 44.90625 L 741.90625 41.296875 L 746.457031 38.980469 L 751.5 38.179688 L 756.542969 38.980469 L 761.09375 41.296875 L 764.703125 44.90625 L 767.019531 49.457031 L 767.820312 54.5 "/>
<path fill="none" stroke-width="1" stroke-linecap="round" stroke-linejoin="miter" stroke="rgb(0%, 100%, 100%)" stroke-opacity="1" stroke-miterlimit="10" d="M 817.320312 54.5 L 816.519531 59.542969 L 814.203125 64.09375 L 810.59375 67.703125 L 806.042969 70.019531 L 801 70.820312 L 795.957031 70.019531 L 791.40625 67.703125 L 787.796875 64.09375 L 785.480469 59.542969 L 784.679688 54.5 L 785.480469 49.457031 L 787.796875 44.90625 L 791.40625 41.296875 L 795.957031 38.980469 L 801 38.179688 L 806.042969 38.980469 L 810.59375 41.296875 L 814.203125 44.90625 L 816.519531 49.457031 L 817.320312 54.5 "/>
<path fill="none" stroke-width="1" stroke-linecap="round" stroke-linejoin="miter" stroke="rgb(0%, 100%, 100%)" stroke-opacity="1" stroke-miterlimit="10" d="M 867.320312 54.5 L 866.519531 59.542969 L 864.203125 64.09375 L 860.59375 67.703125 L 856.042969 70.019531 L 851 70.820312 L 845.957031 70.019531 L 841.40625 67.703125 L 837.796875 64.09375 L 835.480469 59.542969 L 834.679688 54.5 L 835.480469 49.457031 L 837.796875 44.90625 L 841.40625 41.296875 L 845.957031 38.980469 L 851 38.179688 L 856.042969 38.980469 L 860.59375 41.296875 L 864.203125 44.90625 L 866.519531 49.457031 L 867.320312 54.5 "/>
<path fill="none" stroke-width="1" stroke-linecap="round" stroke-linejoin="miter" stroke="rgb(0%, 100%, 100%)" stroke-opacity="1" stroke-miterlimit="10" d="M 917.320312 54.5 L 916.519531 59.542969 L 914.203125 64.09375 L 910.59375 67.703125 L 906.042969 70.019531 L 901 70.820312 L 895.957031 70.019531 L 891.40625 67.703125 L 887.796875 64.09375 L 885.480469 59.542969 L 884.679688 54.5 L 885.480469 49.457031 L 887.796875 44.90625 L 891.40625 41.296875 L 895.957031 38.980469 L 901 38.179688 L 906.042969 38.980469 L 910.59375 41.296875 L 914.203125 44.90625 L 916.519531 49.457031 L 917.320312 54.5 "/>
<path fill="none" stroke-width="1" stroke-linecap="round" stroke-linejoin="miter" stroke="rgb(0%, 100%, 100%)" stroke-opacity="1" stroke-miterlimit="10" d="M 1017.820312 54.5 L 1017.019531 59.542969 L 1014.703125 64.09375 L 1011.09375 67.703125 L 1006.542969 70.019531 L 1001.5 70.820312 L 996.457031 70.019531 L 991.90625 67.703125 L 988.296875 64.09375 L 985.980469 59.542969 L 985.179688 54.5 L 985.980469 49.457031 L 988.296875 44.90625 L 991.90625 41.296875 L 996.457031 38.980469 L 1001.5 38.179688 L 1006.542969 38.980469 L 1011.09375 41.296875 L 1014.703125 44.90625 L 1017.019531 49.457031 L 1017.820312 54.5 "/>
<path fill="none" stroke-width="1" stroke-linecap="round" stroke-linejoin="miter" stroke="rgb(0%, 100%, 100%)" stroke-opacity="1" stroke-miterlimit="10" d="M 887.25 422.5 L 886.453125 427.523438 L 884.148438 432.050781 L 880.550781 435.648438 L 876.023438 437.953125 L 871 438.75 L 865.976562 437.953125 L 861.449219 435.648438 L 857.851562 432.050781 L 855.546875 427.523438 L 854.75 422.5 L 855.546875 417.476562 L 857.851562 412.949219 L 861.449219 409.351562 L 865.976562 407.046875 L 871 406.25 L 876.023438 407.046875 L 880.550781 409.351562 L 884.148438 412.949219 L 886.453125 417.476562 L 887.25 422.5 "/>
<path fill="none" stroke-width="1" stroke-linecap="round" stroke-linejoin="miter" stroke="rgb(0%, 100%, 100%)" stroke-opacity="1" stroke-miterlimit="10" d="M 887.25 383.5 L 886.453125 388.523438 L 884.148438 393.050781 L 880.550781 396.648438 L 876.023438 398.953125 L 871 399.75 L 865.976562 398.953125 L 861.449219 396.648438 L 857.851562 393.050781 L 855.546875 388.523438 L 854.75 383.5 L 855.546875 378.476562 L 857.851562 373.949219 L 861.449219 370.351562 L 865.976562 368.046875 L 871 367.25 L 876.023438 368.046875 L 880.550781 370.351562 L 884.148438 373.949219 L 886.453125 378.476562 L 887.25 383.5 "/>
<path fill="none" stroke-width="1" stroke-linecap="round" stroke-linejoin="miter" stroke="rgb(0%, 100%, 100%)" stroke-opacity="1" stroke-miterlimit="10" d="M 887.25 344 L 886.453125 349.023438 L 884.148438 353.550781 L 880.550781 357.148438 L 876.023438 359.453125 L 871 360.25 L 865.976562 359.453125 L 861.449219 357.148438 L 857.851562 353.550781 L 855.546875 349.023438 L 854.75 344 L 855.546875 338.976562 L 857.851562 334.449219 L 861.449219 330.851562 L 865.976562 328.546875 L 871 327.75 L 876.023438 328.546875 L 880.550781 330.851562 L 884.148438 334.449219 L 886.453125 338.976562 L 887.25 344 "/>
<path fill="none" stroke-width="1" stroke-linecap="round" stroke-linejoin="miter" stroke="rgb(0%, 100%, 100%)" stroke-opacity="1" stroke-miterlimit="10" d="M 887.25 304.5 L 886.453125 309.523438 L 884.148438 314.050781 L 880.550781 317.648438 L 876.023438 319.953125 L 871 320.75 L 865.976562 319.953125 L 861.449219 317.648438 L 857.851562 314.050781 L 855.546875 309.523438 L 854.75 304.5 L 855.546875 299.476562 L 857.851562 294.949219 L 861.449219 291.351562 L 865.976562 289.046875 L 871 288.25 L 876.023438 289.046875 L 880.550781 291.351562 L 884.148438 294.949219 L 886.453125 299.476562 L 887.25 304.5 "/>
<path fill="none" stroke-width="1" stroke-linecap="round" stroke-linejoin="miter" stroke="rgb(0%, 100%, 100%)" stroke-opacity="1" stroke-miterlimit="10" d="M 689.75 754.5 L 688.832031 760.292969 L 686.167969 765.519531 L 682.019531 769.667969 L 676.792969 772.332031 L 671 773.25 L 665.207031 772.332031 L 659.980469 769.667969 L 655.832031 765.519531 L 653.167969 760.292969 L 652.25 754.5 L 653.167969 748.707031 L 655.832031 743.480469 L 659.980469 739.332031 L 665.207031 736.667969 L 671 735.75 L 676.792969 736.667969 L 682.019531 739.332031 L 686.167969 743.480469 L 688.832031 748.707031 L 689.75 754.5 "/>
<path fill="none" stroke-width="1" stroke-linecap="round" stroke-linejoin="miter" stroke="rgb(0%, 100%, 100%)" stroke-opacity="1" stroke-miterlimit="10" d="M 689.75 554.5 L 688.832031 560.292969 L 686.167969 565.519531 L 682.019531 569.667969 L 676.792969 572.332031 L 671 573.25 L 665.207031 572.332031 L 659.980469 569.667969 L 655.832031 565.519531 L 653.167969 560.292969 L 652.25 554.5 L 653.167969 548.707031 L 655.832031 543.480469 L 659.980469 539.332031 L 665.207031 536.667969 L 671 535.75 L 676.792969 536.667969 L 682.019531 539.332031 L 686.167969 543.480469 L 688.832031 548.707031 L 689.75 554.5 "/>
<path fill="none" stroke-width="1" stroke-linecap="round" stroke-linejoin="miter" stroke="rgb(0%, 100%, 100%)" stroke-opacity="1" stroke-miterlimit="10" d="M 739.75 754.5 L 738.832031 760.292969 L 736.167969 765.519531 L 732.019531 769.667969 L 726.792969 772.332031 L 721 773.25 L 715.207031 772.332031 L 709.980469 769.667969 L 705.832031 765.519531 L 703.167969 760.292969 L 702.25 754.5 L 703.167969 748.707031 L 705.832031 743.480469 L 709.980469 739.332031 L 715.207031 736.667969 L 721 735.75 L 726.792969 736.667969 L 732.019531 739.332031 L 736.167969 743.480469 L 738.832031 748.707031 L 739.75 754.5 "/>
<path fill="none" stroke-width="1" stroke-linecap="round" stroke-linejoin="miter" stroke="rgb(0%, 100%, 100%)" stroke-opacity="1" stroke-miterlimit="10" d="M 739.75 554.5 L 738.832031 560.292969 L 736.167969 565.519531 L 732.019531 569.667969 L 726.792969 572.332031 L 721 573.25 L 715.207031 572.332031 L 709.980469 569.667969 L 705.832031 565.519531 L 703.167969 560.292969 L 702.25 554.5 L 703.167969 548.707031 L 705.832031 543.480469 L 709.980469 539.332031 L 715.207031 536.667969 L 721 535.75 L 726.792969 536.667969 L 732.019531 539.332031 L 736.167969 543.480469 L 738.832031 548.707031 L 739.75 554.5 "/>
<path fill="none" stroke-width="1" stroke-linecap="round" stroke-linejoin="miter" stroke="rgb(0%, 100%, 100%)" stroke-opacity="1" stroke-miterlimit="10" d="M 789.75 754.5 L 788.832031 760.292969 L 786.167969 765.519531 L 782.019531 769.667969 L 776.792969 772.332031 L 771 773.25 L 765.207031 772.332031 L 759.980469 769.667969 L 755.832031 765.519531 L 753.167969 760.292969 L 752.25 754.5 L 753.167969 748.707031 L 755.832031 743.480469 L 759.980469 739.332031 L 765.207031 736.667969 L 771 735.75 L 776.792969 736.667969 L 782.019531 739.332031 L 786.167969 743.480469 L 788.832031 748.707031 L 789.75 754.5 "/>
<path fill="none" stroke-width="1" stroke-linecap="round" stroke-linejoin="miter" stroke="rgb(0%, 100%, 100%)" stroke-opacity="1" stroke-miterlimit="10" d="M 789.75 554.5 L 788.832031 560.292969 L 786.167969 565.519531 L 782.019531 569.667969 L 776.792969 572.332031 L 771 573.25 L 765.207031 572.332031 L 759.980469 569.667969 L 755.832031 565.519531 L 753.167969 560.292969 L 752.25 554.5 L 753.167969 548.707031 L 755.832031 543.480469 L 759.980469 539.332031 L 765.207031 536.667969 L 771 535.75 L 776.792969 536.667969 L 782.019531 539.332031 L 786.167969 543.480469 L 788.832031 548.707031 L 789.75 554.5 "/>
<path fill="none" stroke-width="1" stroke-linecap="round" stroke-linejoin="miter" stroke="rgb(0%, 100%, 100%)" stroke-opacity="1" stroke-miterlimit="10" d="M 665 763.5 L 665.242188 761.808594 L 665.953125 760.257812 L 667.070312 758.964844 L 668.507812 758.042969 L 670.144531 757.5625 L 671.855469 757.5625 L 673.492188 758.042969 L 674.929688 758.964844 L 676.046875 760.257812 L 676.757812 761.808594 L 677 763.5 L 677 994.5 L 676.757812 996.191406 L 676.046875 997.742188 L 674.929688 999.035156 L 673.492188 999.957031 L 671.855469 1000.4375 L 670.144531 1000.4375 L 668.507812 999.957031 L 667.070312 999.035156 L 665.953125 997.742188 L 665.242188 996.191406 L 665 994.5 L 665 763.5 "/>
<path fill="none" stroke-width="1" stroke-linecap="round" stroke-linejoin="miter" stroke="rgb(0%, 100%, 100%)" stroke-opacity="1" stroke-miterlimit="10" d="M 715 763.5 L 715.242188 761.808594 L 715.953125 760.257812 L 717.070312 758.964844 L 718.507812 758.042969 L 720.144531 757.5625 L 721.855469 757.5625 L 723.492188 758.042969 L 724.929688 758.964844 L 726.046875 760.257812 L 726.757812 761.808594 L 727 763.5 L 727 994.5 L 726.757812 996.191406 L 726.046875 997.742188 L 724.929688 999.035156 L 723.492188 999.957031 L 721.855469 1000.4375 L 720.144531 1000.4375 L 718.507812 999.957031 L 717.070312 999.035156 L 715.953125 997.742188 L 715.242188 996.191406 L 715 994.5 L 715 763.5 "/>
<path fill="none" stroke-width="1" stroke-linecap="round" stroke-linejoin="miter" stroke="rgb(0%, 100%, 100%)" stroke-opacity="1" stroke-miterlimit="10" d="M 765 763.511719 L 765.238281 761.820312 L 765.945312 760.265625 L 767.0625 758.972656 L 768.496094 758.046875 L 770.132812 757.5625 L 771.839844 757.558594 L 773.480469 758.035156 L 774.917969 758.957031 L 776.039062 760.246094 L 776.753906 761.796875 L 777 763.488281 L 777.5 994.488281 L 777.261719 996.179688 L 776.554688 997.734375 L 775.4375 999.027344 L 774.003906 999.953125 L 772.367188 1000.4375 L 770.660156 1000.441406 L 769.019531 999.964844 L 767.582031 999.042969 L 766.460938 997.753906 L 765.746094 996.203125 L 765.5 994.511719 L 765 763.511719 "/>
<path fill="none" stroke-width="1" stroke-linecap="round" stroke-linejoin="miter" stroke="rgb(0%, 100%, 100%)" stroke-opacity="1" stroke-miterlimit="10" d="M 677 546 L 676.757812 547.691406 L 676.046875 549.242188 L 674.929688 550.535156 L 673.492188 551.457031 L 671.855469 551.9375 L 670.144531 551.9375 L 668.507812 551.457031 L 667.070312 550.535156 L 665.953125 549.242188 L 665.242188 547.691406 L 665 546 L 665 329 L 665.242188 327.308594 L 665.953125 325.757812 L 667.070312 324.464844 L 668.507812 323.542969 L 670.144531 323.0625 L 671.855469 323.0625 L 673.492188 323.542969 L 674.929688 324.464844 L 676.046875 325.757812 L 676.757812 327.308594 L 677 329 L 677 546 "/>
<path fill="none" stroke-width="1" stroke-linecap="round" stroke-linejoin="miter" stroke="rgb(0%, 100%, 100%)" stroke-opacity="1" stroke-miterlimit="10" d="M 675.113281 333.367188 L 673.71875 334.347656 L 672.101562 334.898438 L 670.394531 334.96875 L 668.738281 334.558594 L 667.261719 333.695312 L 666.09375 332.453125 L 665.320312 330.929688 L 665.003906 329.25 L 665.175781 327.550781 L 665.820312 325.96875 L 666.886719 324.632812 L 692.886719 300.132812 L 694.28125 299.152344 L 695.898438 298.601562 L 697.605469 298.53125 L 699.261719 298.941406 L 700.738281 299.804688 L 701.90625 301.046875 L 702.679688 302.570312 L 702.996094 304.25 L 702.824219 305.949219 L 702.179688 307.53125 L 701.113281 308.867188 L 675.113281 333.367188 "/>
<path fill="none" stroke-width="1" stroke-linecap="round" stroke-linejoin="miter" stroke="rgb(0%, 100%, 100%)" stroke-opacity="1" stroke-miterlimit="10" d="M 697 310.5 L 695.308594 310.257812 L 693.757812 309.546875 L 692.464844 308.429688 L 691.542969 306.992188 L 691.0625 305.355469 L 691.0625 303.644531 L 691.542969 302.007812 L 692.464844 300.570312 L 693.757812 299.453125 L 695.308594 298.742188 L 697 298.5 L 865 298.5 L 866.691406 298.742188 L 868.242188 299.453125 L 869.535156 300.570312 L 870.457031 302.007812 L 870.9375 303.644531 L 870.9375 305.355469 L 870.457031 306.992188 L 869.535156 308.429688 L 868.242188 309.546875 L 866.691406 310.257812 L 865 310.5 L 697 310.5 "/>
<path fill="none" stroke-width="1" stroke-linecap="round" stroke-linejoin="miter" stroke="rgb(0%, 100%, 100%)" stroke-opacity="1" stroke-miterlimit="10" d="M 727.5 546.035156 L 727.246094 547.722656 L 726.527344 549.273438 L 725.402344 550.558594 L 723.960938 551.472656 L 722.320312 551.945312 L 720.613281 551.933594 L 718.976562 551.441406 L 717.542969 550.511719 L 716.433594 549.214844 L 715.734375 547.65625 L 715.5 545.964844 L 716.5 372.464844 L 716.753906 370.777344 L 717.472656 369.226562 L 718.597656 367.941406 L 720.039062 367.027344 L 721.679688 366.554688 L 723.386719 366.566406 L 725.023438 367.058594 L 726.457031 367.988281 L 727.566406 369.285156 L 728.265625 370.84375 L 728.5 372.535156 L 727.5 546.035156 "/>
<path fill="none" stroke-width="1" stroke-linecap="round" stroke-linejoin="miter" stroke="rgb(0%, 100%, 100%)" stroke-opacity="1" stroke-miterlimit="10" d="M 727.136719 376.308594 L 725.875 377.460938 L 724.339844 378.210938 L 722.65625 378.496094 L 720.960938 378.300781 L 719.390625 377.632812 L 718.070312 376.546875 L 717.109375 375.136719 L 716.585938 373.511719 L 716.539062 371.804688 L 716.976562 370.152344 L 717.863281 368.691406 L 740.863281 340.691406 L 742.125 339.539062 L 743.660156 338.789062 L 745.34375 338.503906 L 747.039062 338.699219 L 748.609375 339.367188 L 749.929688 340.453125 L 750.890625 341.863281 L 751.414062 343.488281 L 751.460938 345.195312 L 751.023438 346.847656 L 750.136719 348.308594 L 727.136719 376.308594 "/>
<path fill="none" stroke-width="1" stroke-linecap="round" stroke-linejoin="miter" stroke="rgb(0%, 100%, 100%)" stroke-opacity="1" stroke-miterlimit="10" d="M 745.523438 350.5 L 743.832031 350.265625 L 742.277344 349.5625 L 740.980469 348.449219 L 740.050781 347.015625 L 739.566406 345.378906 L 739.558594 343.671875 L 740.03125 342.03125 L 740.949219 340.589844 L 742.234375 339.464844 L 743.785156 338.75 L 745.476562 338.5 L 864.976562 338 L 866.667969 338.234375 L 868.222656 338.9375 L 869.519531 340.050781 L 870.449219 341.484375 L 870.933594 343.121094 L 870.941406 344.828125 L 870.46875 346.46875 L 869.550781 347.910156 L 868.265625 349.035156 L 866.714844 349.75 L 865.023438 350 L 745.523438 350.5 "/>
<path fill="none" stroke-width="1" stroke-linecap="round" stroke-linejoin="miter" stroke="rgb(0%, 100%, 100%)" stroke-opacity="1" stroke-miterlimit="10" d="M 777 546 L 776.757812 547.691406 L 776.046875 549.242188 L 774.929688 550.535156 L 773.492188 551.457031 L 771.855469 551.9375 L 770.144531 551.9375 L 768.507812 551.457031 L 767.070312 550.535156 L 765.953125 549.242188 L 765.242188 547.691406 L 765 546 L 765 454.5 L 765.242188 452.808594 L 765.953125 451.257812 L 767.070312 449.964844 L 768.507812 449.042969 L 770.144531 448.5625 L 771.855469 448.5625 L 773.492188 449.042969 L 774.929688 449.964844 L 776.046875 451.257812 L 776.757812 452.808594 L 777 454.5 L 777 546 "/>
<path fill="none" stroke-width="1" stroke-linecap="round" stroke-linejoin="miter" stroke="rgb(0%, 100%, 100%)" stroke-opacity="1" stroke-miterlimit="10" d="M 776.261719 457.386719 L 775.234375 458.75 L 773.867188 459.769531 L 772.265625 460.363281 L 770.5625 460.484375 L 768.894531 460.117188 L 767.394531 459.296875 L 766.191406 458.085938 L 765.375 456.585938 L 765.015625 454.917969 L 765.140625 453.214844 L 765.738281 451.613281 L 782.738281 420.613281 L 783.765625 419.25 L 785.132812 418.230469 L 786.734375 417.636719 L 788.4375 417.515625 L 790.105469 417.882812 L 791.605469 418.703125 L 792.808594 419.914062 L 793.625 421.414062 L 793.984375 423.082031 L 793.859375 424.785156 L 793.261719 426.386719 L 776.261719 457.386719 "/>
<path fill="none" stroke-width="1" stroke-linecap="round" stroke-linejoin="miter" stroke="rgb(0%, 100%, 100%)" stroke-opacity="1" stroke-miterlimit="10" d="M 788.078125 429.5 L 786.382812 429.277344 L 784.820312 428.589844 L 783.515625 427.488281 L 782.574219 426.0625 L 782.074219 424.429688 L 782.050781 422.722656 L 782.511719 421.078125 L 783.414062 419.628906 L 784.691406 418.496094 L 786.234375 417.765625 L 787.921875 417.5 L 864.921875 416.5 L 866.617188 416.722656 L 868.179688 417.410156 L 869.484375 418.511719 L 870.425781 419.9375 L 870.925781 421.570312 L 870.949219 423.277344 L 870.488281 424.921875 L 869.585938 426.371094 L 868.308594 427.503906 L 866.765625 428.234375 L 865.078125 428.5 L 788.078125 429.5 "/>
<path fill="none" stroke-width="1" stroke-linecap="round" stroke-linejoin="miter" stroke="rgb(0%, 100%, 100%)" stroke-opacity="1" stroke-miterlimit="10" d="M 877.609375 389 L 875.914062 388.785156 L 874.347656 388.105469 L 873.039062 387.011719 L 872.089844 385.589844 L 871.578125 383.960938 L 871.546875 382.253906 L 872 380.605469 L 872.894531 379.152344 L 874.164062 378.011719 L 875.707031 377.273438 L 877.390625 377 L 1015.890625 374.5 L 1017.585938 374.714844 L 1019.152344 375.394531 L 1020.460938 376.488281 L 1021.410156 377.910156 L 1021.921875 379.539062 L 1021.953125 381.246094 L 1021.5 382.894531 L 1020.605469 384.347656 L 1019.335938 385.488281 L 1017.792969 386.226562 L 1016.109375 386.5 L 877.609375 389 "/>
<path fill="none" stroke-width="1" stroke-linecap="round" stroke-linejoin="miter" stroke="rgb(0%, 100%, 100%)" stroke-opacity="1" stroke-miterlimit="10" d="M 1010.003906 380.667969 L 1010.199219 378.972656 L 1010.863281 377.398438 L 1011.945312 376.078125 L 1013.355469 375.113281 L 1014.980469 374.585938 L 1016.6875 374.539062 L 1018.335938 374.972656 L 1019.800781 375.855469 L 1020.953125 377.117188 L 1021.707031 378.648438 L 1021.996094 380.332031 L 1026.996094 557.832031 L 1026.800781 559.527344 L 1026.136719 561.101562 L 1025.054688 562.421875 L 1023.644531 563.386719 L 1022.019531 563.914062 L 1020.3125 563.960938 L 1018.664062 563.527344 L 1017.199219 562.644531 L 1016.046875 561.382812 L 1015.292969 559.851562 L 1015.003906 558.167969 L 1010.003906 380.667969 "/>
<path fill="none" stroke-width="1" stroke-linecap="round" stroke-linejoin="miter" stroke="rgb(0%, 100%, 100%)" stroke-opacity="1" stroke-miterlimit="10" d="M 842.757812 159.242188 L 841.734375 157.875 L 841.136719 156.277344 L 841.015625 154.570312 L 841.378906 152.902344 L 842.195312 151.40625 L 843.40625 150.195312 L 844.902344 149.378906 L 846.570312 149.015625 L 848.277344 149.136719 L 849.875 149.734375 L 851.242188 150.757812 L 875.242188 174.757812 L 876.265625 176.125 L 876.863281 177.722656 L 876.984375 179.429688 L 876.621094 181.097656 L 875.804688 182.59375 L 874.59375 183.804688 L 873.097656 184.621094 L 871.429688 184.984375 L 869.722656 184.863281 L 868.125 184.265625 L 866.757812 183.242188 L 842.757812 159.242188 "/>
<path fill="none" stroke-width="1" stroke-linecap="round" stroke-linejoin="miter" stroke="rgb(0%, 100%, 100%)" stroke-opacity="1" stroke-miterlimit="10" d="M 871 185 L 869.308594 184.757812 L 867.757812 184.046875 L 866.464844 182.929688 L 865.542969 181.492188 L 865.0625 179.855469 L 865.0625 178.144531 L 865.542969 176.507812 L 866.464844 175.070312 L 867.757812 173.953125 L 869.308594 173.242188 L 871 173 L 997 173 L 998.691406 173.242188 L 1000.242188 173.953125 L 1001.535156 175.070312 L 1002.457031 176.507812 L 1002.9375 178.144531 L 1002.9375 179.855469 L 1002.457031 181.492188 L 1001.535156 182.929688 L 1000.242188 184.046875 L 998.691406 184.757812 L 997 185 L 871 185 "/>
<path fill="none" stroke-width="1" stroke-linecap="round" stroke-linejoin="miter" stroke="rgb(0%, 100%, 100%)" stroke-opacity="1" stroke-miterlimit="10" d="M 845.003906 64.234375 L 845.324219 62.558594 L 846.101562 61.035156 L 847.273438 59.796875 L 848.75 58.9375 L 850.410156 58.527344 L 852.117188 58.605469 L 853.730469 59.15625 L 855.125 60.144531 L 856.1875 61.480469 L 856.824219 63.066406 L 856.996094 64.765625 L 852.996094 155.265625 L 852.675781 156.941406 L 851.898438 158.464844 L 850.726562 159.703125 L 849.25 160.5625 L 847.589844 160.972656 L 845.882812 160.894531 L 844.269531 160.34375 L 842.875 159.355469 L 841.8125 158.019531 L 841.175781 156.433594 L 841.003906 154.734375 L 845.003906 64.234375 "/>
<path fill="none" stroke-width="1" stroke-linecap="round" stroke-linejoin="miter" stroke="rgb(0%, 100%, 100%)" stroke-opacity="1" stroke-miterlimit="10" d="M 992.589844 183.070312 L 991.625 181.664062 L 991.089844 180.039062 L 991.039062 178.332031 L 991.464844 176.679688 L 992.34375 175.214844 L 993.597656 174.058594 L 995.128906 173.300781 L 996.8125 173.003906 L 998.507812 173.191406 L 1000.082031 173.851562 L 1001.410156 174.929688 L 1025.410156 200.929688 L 1026.375 202.335938 L 1026.910156 203.960938 L 1026.960938 205.667969 L 1026.535156 207.320312 L 1025.65625 208.785156 L 1024.402344 209.941406 L 1022.871094 210.699219 L 1021.1875 210.996094 L 1019.492188 210.808594 L 1017.917969 210.148438 L 1016.589844 209.070312 L 992.589844 183.070312 "/>
<path fill="none" stroke-width="1" stroke-linecap="round" stroke-linejoin="miter" stroke="rgb(0%, 100%, 100%)" stroke-opacity="1" stroke-miterlimit="10" d="M 1015.003906 204.828125 L 1015.292969 203.144531 L 1016.046875 201.613281 L 1017.203125 200.355469 L 1018.664062 199.472656 L 1020.316406 199.039062 L 1022.023438 199.085938 L 1023.648438 199.617188 L 1025.058594 200.578125 L 1026.136719 201.902344 L 1026.804688 203.472656 L 1026.996094 205.171875 L 1021.996094 380.671875 L 1021.707031 382.355469 L 1020.953125 383.886719 L 1019.796875 385.144531 L 1018.335938 386.027344 L 1016.683594 386.460938 L 1014.976562 386.414062 L 1013.351562 385.882812 L 1011.941406 384.921875 L 1010.863281 383.597656 L 1010.195312 382.027344 L 1010.003906 380.328125 L 1015.003906 204.828125 "/>
<path fill="none" stroke-width="1" stroke-linecap="round" stroke-linejoin="miter" stroke="rgb(0%, 100%, 100%)" stroke-opacity="1" stroke-miterlimit="10" d="M 1025.410156 150.929688 L 1026.375 152.335938 L 1026.910156 153.960938 L 1026.960938 155.667969 L 1026.535156 157.320312 L 1025.65625 158.785156 L 1024.402344 159.941406 L 1022.871094 160.699219 L 1021.1875 160.996094 L 1019.492188 160.808594 L 1017.917969 160.148438 L 1016.589844 159.070312 L 992.589844 133.070312 L 991.625 131.664062 L 991.089844 130.039062 L 991.039062 128.332031 L 991.464844 126.679688 L 992.34375 125.214844 L 993.597656 124.058594 L 995.128906 123.300781 L 996.8125 123.003906 L 998.507812 123.191406 L 1000.082031 123.851562 L 1001.410156 124.929688 L 1025.410156 150.929688 "/>
<path fill="none" stroke-width="1" stroke-linecap="round" stroke-linejoin="miter" stroke="rgb(0%, 100%, 100%)" stroke-opacity="1" stroke-miterlimit="10" d="M 1077.5 557.992188 L 1077.257812 559.683594 L 1076.550781 561.238281 L 1075.433594 562.53125 L 1074 563.453125 L 1072.363281 563.9375 L 1070.652344 563.941406 L 1069.015625 563.460938 L 1067.578125 562.539062 L 1066.457031 561.25 L 1065.746094 559.699219 L 1065.5 558.007812 L 1065 179.007812 L 1065.242188 177.316406 L 1065.949219 175.761719 L 1067.066406 174.46875 L 1068.5 173.546875 L 1070.136719 173.0625 L 1071.847656 173.058594 L 1073.484375 173.539062 L 1074.921875 174.460938 L 1076.042969 175.75 L 1076.753906 177.300781 L 1077 178.992188 L 1077.5 557.992188 "/>
<path fill="none" stroke-width="1" stroke-linecap="round" stroke-linejoin="miter" stroke="rgb(0%, 100%, 100%)" stroke-opacity="1" stroke-miterlimit="10" d="M 1075.242188 174.757812 L 1076.265625 176.125 L 1076.863281 177.722656 L 1076.984375 179.429688 L 1076.621094 181.097656 L 1075.804688 182.59375 L 1074.59375 183.804688 L 1073.097656 184.621094 L 1071.429688 184.984375 L 1069.722656 184.863281 L 1068.125 184.265625 L 1066.757812 183.242188 L 1042.757812 159.242188 L 1041.734375 157.875 L 1041.136719 156.277344 L 1041.015625 154.570312 L 1041.378906 152.902344 L 1042.195312 151.40625 L 1043.40625 150.195312 L 1044.902344 149.378906 L 1046.570312 149.015625 L 1048.277344 149.136719 L 1049.875 149.734375 L 1051.242188 150.757812 L 1075.242188 174.757812 "/>
<path fill="none" stroke-width="1" stroke-linecap="round" stroke-linejoin="miter" stroke="rgb(0%, 100%, 100%)" stroke-opacity="1" stroke-miterlimit="10" d="M 1047 149 L 1048.691406 149.242188 L 1050.242188 149.953125 L 1051.535156 151.070312 L 1052.457031 152.507812 L 1052.9375 154.144531 L 1052.9375 155.855469 L 1052.457031 157.492188 L 1051.535156 158.929688 L 1050.242188 160.046875 L 1048.691406 160.757812 L 1047 161 L 1021 161 L 1019.308594 160.757812 L 1017.757812 160.046875 L 1016.464844 158.929688 L 1015.542969 157.492188 L 1015.0625 155.855469 L 1015.0625 154.144531 L 1015.542969 152.507812 L 1016.464844 151.070312 L 1017.757812 149.953125 L 1019.308594 149.242188 L 1021 149 L 1047 149 "/>
<path fill="none" stroke-width="1" stroke-linecap="round" stroke-linejoin="miter" stroke="rgb(0%, 100%, 100%)" stroke-opacity="1" stroke-miterlimit="10" d="M 1002.992188 129.324219 L 1002.65625 131 L 1001.863281 132.511719 L 1000.675781 133.742188 L 999.191406 134.585938 L 997.53125 134.976562 L 995.824219 134.882812 L 994.214844 134.316406 L 992.832031 133.316406 L 991.785156 131.964844 L 991.160156 130.375 L 991.007812 128.675781 L 994.507812 64.175781 L 994.84375 62.5 L 995.636719 60.988281 L 996.824219 59.757812 L 998.308594 58.914062 L 999.96875 58.523438 L 1001.675781 58.617188 L 1003.285156 59.183594 L 1004.667969 60.183594 L 1005.714844 61.535156 L 1006.339844 63.125 L 1006.492188 64.824219 L 1002.992188 129.324219 "/>
</svg>
