<?xml version="1.0" encoding="UTF-8"?>
<svg xmlns="http://www.w3.org/2000/svg" xmlns:xlink="http://www.w3.org/1999/xlink" width="1500" height="1500" viewBox="0 0 1500 1500">
<path fill="none" stroke-width="37.3335" stroke-linecap="round" stroke-linejoin="miter" stroke="rgb(0%, 0%, 100%)" stroke-opacity="1" stroke-miterlimit="10" d="M 1021.5 568.5 L 1021.5 568.5 M 1071.5 568.5 L 1071.5 568.5 "/>
<path fill="none" stroke-width="37.3475" stroke-linecap="round" stroke-linejoin="miter" stroke="rgb(0%, 0%, 100%)" stroke-opacity="1" stroke-miterlimit="10" d="M 1121.5 568.5 L 1121.5 568.5 "/>
<path fill="none" stroke-width="62.0165" stroke-linecap="round" stroke-linejoin="miter" stroke="rgb(0%, 0%, 100%)" stroke-opacity="1" stroke-miterlimit="10" d="M 974.5 716 L 974.5 716 M 1168.5 716 L 1168.5 716 "/>
<path fill="none" stroke-width="32.639" stroke-linecap="round" stroke-linejoin="miter" stroke="rgb(0%, 0%, 100%)" stroke-opacity="1" stroke-miterlimit="10" d="M 1051 54.5 L 1051 54.5 M 1101 54.5 L 1101 54.5 M 1151.5 54.5 L 1151.5 54.5 M 1201.5 54.5 L 1201.5 54.5 M 1251.5 54.5 L 1251.5 54.5 M 821 1004.5 L 821 1004.5 M 771.5 1004.5 L 771.5 1004.5 M 721 1004.5 L 721 1004.5 M 671 1004.5 L 671 1004.5 M 621 1004.5 L 621 1004.5 M 571 1004.5 L 571 1004.5 M 521 1004.5 L 521 1004.5 M 471 1004.5 L 471 1004.5 M 421 1004.5 L 421 1004.5 M 371 1004.5 L 371 1004.5 M 1251.5 1004.5 L 1251.5 1004.5 M 1201.5 1004.5 L 1201.5 1004.5 M 1151.5 1004.5 L 1151.5 1004.5 M 1101 1004.5 L 1101 1004.5 M 1051 1004.5 L 1051 1004.5 M 1001.5 1004.5 L 1001.5 1004.5 M 951.5 1004.5 L 951.5 1004.5 M 901 1004.5 L 901 1004.5 M 601 54.5 L 601 54.5 M 551 54.5 L 551 54.5 M 651 54.5 L 651 54.5 M 701.5 54.5 L 701.5 54.5 M 751.5 54.5 L 751.5 54.5 M 801 54.5 L 801 54.5 M 851 54.5 L 851 54.5 M 901 54.5 L 901 54.5 M 1001.5 54.5 L 1001.5 54.5 "/>
<path fill="none" stroke-width="32.5" stroke-linecap="round" stroke-linejoin="miter" stroke="rgb(0%, 0%, 100%)" stroke-opacity="1" stroke-miterlimit="10" d="M 871 422.5 L 871 422.5 M 871 383.5 L 871 383.5 M 871 344 L 871 344 M 871 304.5 L 871 304.5 "/>
<path fill="none" stroke-width="37.5" stroke-linecap="round" stroke-linejoin="miter" stroke="rgb(0%, 0%, 100%)" stroke-opacity="1" stroke-miterlimit="10" d="M 671 754.5 L 671 754.5 M 671 554.5 L 671 554.5 M 721 754.5 L 721 754.5 M 721 554.5 L 721 554.5 M 771 754.5 L 771 754.5 M 771 554.5 L 771 554.5 "/>
<path fill="none" stroke-width="1" stroke-linecap="round" stroke-linejoin="miter" stroke="rgb(0%, 100%, 100%)" stroke-opacity="1" stroke-miterlimit="10" d="M 677 763.5 L 677 994.5 L 665 994.5 L 665 763.5 L 677 763.5 "/>
<path fill="none" stroke-width="1" stroke-linecap="round" stroke-linejoin="miter" stroke="rgb(0%, 100%, 100%)" stroke-opacity="1" stroke-miterlimit="10" d="M 727 763.5 L 727 994.5 L 715 994.5 L 715 763.5 L 727 763.5 "/>
<path fill="none" stroke-width="1" stroke-linecap="round" stroke-linejoin="miter" stroke="rgb(0%, 100%, 100%)" stroke-opacity="1" stroke-miterlimit="10" d="M 777 763.488281 L 777.5 994.488281 L 765.5 994.511719 L 765 763.511719 L 777 763.488281 "/>
<path fill="none" stroke-width="1" stroke-linecap="round" stroke-linejoin="miter" stroke="rgb(0%, 100%, 100%)" stroke-opacity="1" stroke-miterlimit="10" d="M 665 546 L 665 329 L 666.886719 324.632812 L 692.886719 300.132812 L 697 298.5 L 865 298.5 L 865 310.5 L 697 310.5 L 701.113281 308.867188 L 675.113281 333.367188 L 677 329 L 677 546 L 665 546 "/>
<path fill="none" stroke-width="1" stroke-linecap="round" stroke-linejoin="miter" stroke="rgb(0%, 100%, 100%)" stroke-opacity="1" stroke-miterlimit="10" d="M 715.5 545.964844 L 716.5 372.464844 L 717.863281 368.691406 L 740.863281 340.691406 L 745.476562 338.5 L 864.976562 338 L 865.023438 350 L 745.523438 350.5 L 750.136719 348.308594 L 727.136719 376.308594 L 728.5 372.535156 L 727.5 546.035156 L 715.5 545.964844 "/>
<path fill="none" stroke-width="1" stroke-linecap="round" stroke-linejoin="miter" stroke="rgb(0%, 100%, 100%)" stroke-opacity="1" stroke-miterlimit="10" d="M 765 546 L 765 454.5 L 765.738281 451.613281 L 782.738281 420.613281 L 787.921875 417.5 L 864.921875 416.5 L 865.078125 428.5 L 788.078125 429.5 L 793.261719 426.386719 L 776.261719 457.386719 L 777 454.5 L 777 546 L 765 546 "/>
<path fill="none" stroke-width="1" stroke-linecap="round" stroke-linejoin="miter" stroke="rgb(0%, 100%, 100%)" stroke-opacity="1" stroke-miterlimit="10" d="M 877.390625 377 L 1015.890625 374.5 L 1021.996094 380.332031 L 1026.996094 557.832031 L 1015.003906 558.167969 L 1010.003906 380.667969 L 1016.109375 386.5 L 877.609375 389 L 877.390625 377 "/>
<path fill="none" stroke-width="1" stroke-linecap="round" stroke-linejoin="miter" stroke="rgb(0%, 100%, 100%)" stroke-opacity="1" stroke-miterlimit="10" d="M 851.242188 150.757812 L 875.242188 174.757812 L 871 173 L 997 173 L 997 185 L 871 185 L 866.757812 183.242188 L 842.757812 159.242188 L 851.242188 150.757812 "/>
<path fill="none" stroke-width="1" stroke-linecap="round" stroke-linejoin="miter" stroke="rgb(0%, 100%, 100%)" stroke-opacity="1" stroke-miterlimit="10" d="M 856.996094 64.765625 L 852.996094 155.265625 L 841.003906 154.734375 L 845.003906 64.234375 L 856.996094 64.765625 "/>
<path fill="none" stroke-width="1" stroke-linecap="round" stroke-linejoin="miter" stroke="rgb(0%, 100%, 100%)" stroke-opacity="1" stroke-miterlimit="10" d="M 1001.410156 174.929688 L 1025.410156 200.929688 L 1026.996094 205.171875 L 1021.996094 380.671875 L 1010.003906 380.328125 L 1015.003906 204.828125 L 1016.589844 209.070312 L 992.589844 183.070312 L 1001.410156 174.929688 "/>
<path fill="none" stroke-width="1" stroke-linecap="round" stroke-linejoin="miter" stroke="rgb(0%, 100%, 100%)" stroke-opacity="1" stroke-miterlimit="10" d="M 1016.589844 159.070312 L 992.589844 133.070312 L 1001.410156 124.929688 L 1025.410156 150.929688 L 1016.589844 159.070312 "/>
<path fill="none" stroke-width="1" stroke-linecap="round" stroke-linejoin="miter" stroke="rgb(0%, 100%, 100%)" stroke-opacity="1" stroke-miterlimit="10" d="M 1065.5 558.007812 L 1065 179.007812 L 1066.757812 183.242188 L 1042.757812 159.242188 L 1047 161 L 1021 161 L 1021 149 L 1047 149 L 1051.242188 150.757812 L 1075.242188 174.757812 L 1077 178.992188 L 1077.5 557.992188 L 1065.5 558.007812 "/>
<path fill="none" stroke-width="1" stroke-linecap="round" stroke-linejoin="miter" stroke="rgb(0%, 100%, 100%)" stroke-opacity="1" stroke-miterlimit="10" d="M 991.007812 128.675781 L 994.507812 64.175781 L 1006.492188 64.824219 L 1002.992188 129.324219 L 991.007812 128.675781 "/>
</svg>
