<?xml version="1.0" encoding="UTF-8"?>
<svg xmlns="http://www.w3.org/2000/svg" xmlns:xlink="http://www.w3.org/1999/xlink" width="700" height="700" viewBox="0 0 700 700">
<path fill="none" stroke-width="0.74667" stroke-linecap="round" stroke-linejoin="miter" stroke="rgb(0%, 0%, 100%)" stroke-opacity="1" stroke-miterlimit="10" d="M 20.429688 11.371094 L 20.429688 11.371094 M 21.429688 11.371094 L 21.429688 11.371094 "/>
<path fill="none" stroke-width="0.74695" stroke-linecap="round" stroke-linejoin="miter" stroke="rgb(0%, 0%, 100%)" stroke-opacity="1" stroke-miterlimit="10" d="M 22.429688 11.371094 L 22.429688 11.371094 "/>
<path fill="none" stroke-width="1.24033" stroke-linecap="round" stroke-linejoin="miter" stroke="rgb(0%, 0%, 100%)" stroke-opacity="1" stroke-miterlimit="10" d="M 19.488281 14.320312 L 19.488281 14.320312 M 23.371094 14.320312 L 23.371094 14.320312 "/>
<path fill="none" stroke-width="0.65278" stroke-linecap="round" stroke-linejoin="miter" stroke="rgb(0%, 0%, 100%)" stroke-opacity="1" stroke-miterlimit="10" d="M 21.019531 1.089844 L 21.019531 1.089844 M 22.019531 1.089844 L 22.019531 1.089844 M 23.03125 1.089844 L 23.03125 1.089844 M 24.03125 1.089844 L 24.03125 1.089844 M 25.03125 1.089844 L 25.03125 1.089844 M 16.421875 20.089844 L 16.421875 20.089844 M 15.429688 20.089844 L 15.429688 20.089844 M 14.421875 20.089844 L 14.421875 20.089844 M 13.421875 20.089844 L 13.421875 20.089844 M 12.421875 20.089844 L 12.421875 20.089844 M 11.421875 20.089844 L 11.421875 20.089844 M 10.421875 20.089844 L 10.421875 20.089844 M 9.421875 20.089844 L 9.421875 20.089844 M 8.421875 20.089844 L 8.421875 20.089844 M 7.421875 20.089844 L 7.421875 20.089844 M 25.03125 20.089844 L 25.03125 20.089844 M 24.03125 20.089844 L 24.03125 20.089844 M 23.03125 20.089844 L 23.03125 20.089844 M 22.019531 20.089844 L 22.019531 20.089844 M 21.019531 20.089844 L 21.019531 20.089844 M 20.03125 20.089844 L 20.03125 20.089844 M 19.03125 20.089844 L 19.03125 20.089844 M 18.019531 20.089844 L 18.019531 20.089844 M 12.019531 1.089844 L 12.019531 1.089844 M 11.019531 1.089844 L 11.019531 1.089844 M 13.019531 1.089844 L 13.019531 1.089844 M 14.03125 1.089844 L 14.03125 1.089844 M 15.03125 1.089844 L 15.03125 1.089844 M 16.019531 1.089844 L 16.019531 1.089844 M 17.019531 1.089844 L 17.019531 1.089844 M 18.019531 1.089844 L 18.019531 1.089844 M 20.03125 1.089844 L 20.03125 1.089844 "/>
<path fill="none" stroke-width="0.65" stroke-linecap="round" stroke-linejoin="miter" stroke="rgb(0%, 0%, 100%)" stroke-opacity="1" stroke-miterlimit="10" d="M 17.421875 8.449219 L 17.421875 8.449219 M 17.421875 7.671875 L 17.421875 7.671875 M 17.421875 6.878906 L 17.421875 6.878906 M 17.421875 6.089844 L 17.421875 6.089844 "/>
<path fill="none" stroke-width="0.75" stroke-linecap="round" stroke-linejoin="miter" stroke="rgb(0%, 0%, 100%)" stroke-opacity="1" stroke-miterlimit="10" d="M 13.421875 15.089844 L 13.421875 15.089844 M 13.421875 11.089844 L 13.421875 11.089844 M 14.421875 15.089844 L 14.421875 15.089844 M 14.421875 11.089844 L 14.421875 11.089844 M 15.421875 15.089844 L 15.421875 15.089844 M 15.421875 11.089844 L 15.421875 11.089844 "/>
<path fill="none" stroke-width="0.24" stroke-linecap="round" stroke-linejoin="miter" stroke="rgb(0%, 0%, 100%)" stroke-opacity="1" stroke-miterlimit="10" d="M 13.539062 19.890625 L 13.539062 15.269531 M 13.300781 19.890625 L 13.300781 15.269531 M 14.539062 19.890625 L 14.539062 15.269531 M 14.300781 19.890625 L 14.300781 15.269531 M 15.550781 19.890625 L 15.539062 15.269531 M 15.308594 19.890625 L 15.300781 15.269531 M 13.300781 6.578125 L 13.300781 10.921875 M 13.539062 6.578125 L 13.539062 10.921875 M 13.859375 6.175781 L 13.335938 6.667969 M 14.023438 6.003906 L 13.503906 6.492188 M 17.300781 6.210938 L 13.941406 6.210938 M 17.300781 5.96875 L 13.941406 5.96875 M 14.328125 7.449219 L 14.308594 10.921875 M 14.570312 7.449219 L 14.550781 10.917969 M 14.816406 6.964844 L 14.355469 7.527344 M 15.003906 6.8125 L 14.542969 7.375 M 17.300781 7 L 14.910156 7.011719 M 17.300781 6.761719 L 14.910156 6.769531 M 15.300781 9.089844 L 15.300781 10.921875 M 15.539062 9.089844 L 15.539062 10.921875 M 15.65625 8.527344 L 15.316406 9.148438 M 15.863281 8.414062 L 15.523438 9.03125 M 17.296875 8.570312 L 15.757812 8.589844 M 17.300781 8.328125 L 15.761719 8.351562 M 20.316406 7.730469 L 17.546875 7.78125 M 20.320312 7.488281 L 17.550781 7.539062 M 20.539062 11.164062 L 20.441406 7.613281 M 20.300781 11.15625 L 20.199219 7.605469 M 17.503906 3.664062 L 17.023438 3.183594 M 17.335938 3.496094 L 16.855469 3.015625 M 19.941406 3.699219 L 17.421875 3.699219 M 19.941406 3.460938 L 17.421875 3.460938 M 17.058594 3.09375 L 17.140625 1.285156 M 16.820312 3.105469 L 16.898438 1.296875 M 20.507812 4.179688 L 20.027344 3.660156 M 20.332031 4.019531 L 19.851562 3.5 M 20.441406 7.605469 L 20.539062 4.097656 M 20.199219 7.613281 L 20.300781 4.101562 M 19.851562 2.5 L 20.332031 3.019531 M 20.027344 2.660156 L 20.507812 3.179688 M 21.300781 3.578125 L 21.308594 11.160156 M 21.539062 3.582031 L 21.550781 11.160156 M 20.855469 3.015625 L 21.335938 3.496094 M 21.023438 3.183594 L 21.503906 3.664062 M 20.421875 2.980469 L 20.941406 2.980469 M 20.421875 3.21875 L 20.941406 3.21875 M 19.890625 1.296875 L 19.820312 2.585938 M 20.128906 1.285156 L 20.058594 2.574219 "/>
</svg>
