<?xml version="1.0" encoding="UTF-8"?>
<svg xmlns="http://www.w3.org/2000/svg" xmlns:xlink="http://www.w3.org/1999/xlink" width="700" height="700" viewBox="0 0 700 700">
<path fill="none" stroke-width="0.74667" stroke-linecap="round" stroke-linejoin="miter" stroke="rgb(0%, 0%, 100%)" stroke-opacity="1" stroke-miterlimit="10" d="M 20.429688 11.371094 L 20.429688 11.371094 M 21.429688 11.371094 L 21.429688 11.371094 "/>
<path fill="none" stroke-width="0.74695" stroke-linecap="round" stroke-linejoin="miter" stroke="rgb(0%, 0%, 100%)" stroke-opacity="1" stroke-miterlimit="10" d="M 22.429688 11.371094 L 22.429688 11.371094 "/>
<path fill="none" stroke-width="1.24033" stroke-linecap="round" stroke-linejoin="miter" stroke="rgb(0%, 0%, 100%)" stroke-opacity="1" stroke-miterlimit="10" d="M 19.488281 14.320312 L 19.488281 14.320312 M 23.371094 14.320312 L 23.371094 14.320312 "/>
<path fill="none" stroke-width="0.65278" stroke-linecap="round" stroke-linejoin="miter" stroke="rgb(0%, 0%, 100%)" stroke-opacity="1" stroke-miterlimit="10" d="M 21.019531 1.089844 L 21.019531 1.089844 M 22.019531 1.089844 L 22.019531 1.089844 M 23.03125 1.089844 L 23.03125 1.089844 M 24.03125 1.089844 L 24.03125 1.089844 M 25.03125 1.089844 L 25.03125 1.089844 M 16.421875 20.089844 L 16.421875 20.089844 M 15.429688 20.089844 L 15.429688 20.089844 M 14.421875 20.089844 L 14.421875 20.089844 M 13.421875 20.089844 L 13.421875 20.089844 M 12.421875 20.089844 L 12.421875 20.089844 M 11.421875 20.089844 L 11.421875 20.089844 M 10.421875 20.089844 L 10.421875 20.089844 M 9.421875 20.089844 L 9.421875 20.089844 M 8.421875 20.089844 L 8.421875 20.089844 M 7.421875 20.089844 L 7.421875 20.089844 M 25.03125 20.089844 L 25.03125 20.089844 M 24.03125 20.089844 L 24.03125 20.089844 M 23.03125 20.089844 L 23.03125 20.089844 M 22.019531 20.089844 L 22.019531 20.089844 M 21.019531 20.089844 L 21.019531 20.089844 M 20.03125 20.089844 L 20.03125 20.089844 M 19.03125 20.089844 L 19.03125 20.089844 M 18.019531 20.089844 L 18.019531 20.089844 M 12.019531 1.089844 L 12.019531 1.089844 M 11.019531 1.089844 L 11.019531 1.089844 M 13.019531 1.089844 L 13.019531 1.089844 M 14.03125 1.089844 L 14.03125 1.089844 M 15.03125 1.089844 L 15.03125 1.089844 M 16.019531 1.089844 L 16.019531 1.089844 M 17.019531 1.089844 L 17.019531 1.089844 M 18.019531 1.089844 L 18.019531 1.089844 M 20.03125 1.089844 L 20.03125 1.089844 "/>
<path fill="none" stroke-width="0.65" stroke-linecap="round" stroke-linejoin="miter" stroke="rgb(0%, 0%, 100%)" stroke-opacity="1" stroke-miterlimit="10" d="M 17.421875 8.449219 L 17.421875 8.449219 M 17.421875 7.671875 L 17.421875 7.671875 M 17.421875 6.878906 L 17.421875 6.878906 M 17.421875 6.089844 L 17.421875 6.089844 "/>
<path fill="none" stroke-width="0.75" stroke-linecap="round" stroke-linejoin="miter" stroke="rgb(0%, 0%, 100%)" stroke-opacity="1" stroke-miterlimit="10" d="M 13.421875 15.089844 L 13.421875 15.089844 M 13.421875 11.089844 L 13.421875 11.089844 M 14.421875 15.089844 L 14.421875 15.089844 M 14.421875 11.089844 L 14.421875 11.089844 M 15.421875 15.089844 L 15.421875 15.089844 M 15.421875 11.089844 L 15.421875 11.089844 "/>
<path fill="none" stroke-width="0.24" stroke-linecap="round" stroke-linejoin="miter" stroke="rgb(0%, 0%, 100%)" stroke-opacity="1" stroke-miterlimit="10" d="M 13.421875 19.890625 L 13.421875 15.269531 M 14.421875 19.890625 L 14.421875 15.269531 M 15.429688 19.890625 L 15.421875 15.269531 M 13.421875 6.578125 L 13.421875 10.921875 M 13.941406 6.089844 L 13.421875 6.578125 M 17.300781 6.089844 L 13.941406 6.089844 M 14.449219 7.449219 L 14.429688 10.921875 M 14.910156 6.890625 L 14.449219 7.449219 M 17.300781 6.878906 L 14.910156 6.890625 M 15.421875 9.089844 L 15.421875 10.921875 M 15.761719 8.46875 L 15.421875 9.089844 M 17.300781 8.449219 L 15.761719 8.46875 M 20.320312 7.609375 L 17.550781 7.660156 M 20.421875 11.160156 L 20.320312 7.609375 M 17.421875 3.578125 L 16.941406 3.101562 M 19.941406 3.578125 L 17.421875 3.578125 M 16.941406 3.101562 L 17.019531 1.289062 M 20.421875 4.101562 L 19.941406 3.578125 M 20.320312 7.609375 L 20.421875 4.101562 M 19.941406 2.578125 L 20.421875 3.101562 M 21.421875 3.578125 L 21.429688 11.160156 M 20.941406 3.101562 L 21.421875 3.578125 M 20.421875 3.101562 L 20.941406 3.101562 M 20.011719 1.289062 L 19.941406 2.578125 "/>
</svg>
