<?xml version="1.0" encoding="UTF-8"?>
<svg xmlns="http://www.w3.org/2000/svg" xmlns:xlink="http://www.w3.org/1999/xlink" width="700" height="700" viewBox="0 0 700 700">
<path fill="none" stroke-width="0.074667" stroke-linecap="round" stroke-linejoin="miter" stroke="rgb(0%, 0%, 100%)" stroke-opacity="1" stroke-miterlimit="10" d="M 2.042969 1.136719 L 2.042969 1.136719 M 2.144531 1.136719 L 2.144531 1.136719 "/>
<path fill="none" stroke-width="0.074695" stroke-linecap="round" stroke-linejoin="miter" stroke="rgb(0%, 0%, 100%)" stroke-opacity="1" stroke-miterlimit="10" d="M 2.242188 1.136719 L 2.242188 1.136719 "/>
<path fill="none" stroke-width="0.124033" stroke-linecap="round" stroke-linejoin="miter" stroke="rgb(0%, 0%, 100%)" stroke-opacity="1" stroke-miterlimit="10" d="M 1.949219 1.433594 L 1.949219 1.433594 M 2.335938 1.433594 L 2.335938 1.433594 "/>
<path fill="none" stroke-width="0.065278" stroke-linecap="round" stroke-linejoin="miter" stroke="rgb(0%, 0%, 100%)" stroke-opacity="1" stroke-miterlimit="10" d="M 2.101562 0.109375 L 2.101562 0.109375 M 2.203125 0.109375 L 2.203125 0.109375 M 2.304688 0.109375 L 2.304688 0.109375 M 2.402344 0.109375 L 2.402344 0.109375 M 2.503906 0.109375 L 2.503906 0.109375 M 1.640625 2.007812 L 1.640625 2.007812 M 1.542969 2.007812 L 1.542969 2.007812 M 1.441406 2.007812 L 1.441406 2.007812 M 1.34375 2.007812 L 1.34375 2.007812 M 1.242188 2.007812 L 1.242188 2.007812 M 1.140625 2.007812 L 1.140625 2.007812 M 1.042969 2.007812 L 1.042969 2.007812 M 0.941406 2.007812 L 0.941406 2.007812 M 0.84375 2.007812 L 0.84375 2.007812 M 0.742188 2.007812 L 0.742188 2.007812 M 2.503906 2.007812 L 2.503906 2.007812 M 2.402344 2.007812 L 2.402344 2.007812 M 2.304688 2.007812 L 2.304688 2.007812 M 2.203125 2.007812 L 2.203125 2.007812 M 2.101562 2.007812 L 2.101562 2.007812 M 2.003906 2.007812 L 2.003906 2.007812 M 1.902344 2.007812 L 1.902344 2.007812 M 1.800781 2.007812 L 1.800781 2.007812 M 1.203125 0.109375 L 1.203125 0.109375 M 1.101562 0.109375 L 1.101562 0.109375 M 1.300781 0.109375 L 1.300781 0.109375 M 1.402344 0.109375 L 1.402344 0.109375 M 1.503906 0.109375 L 1.503906 0.109375 M 1.601562 0.109375 L 1.601562 0.109375 M 1.703125 0.109375 L 1.703125 0.109375 M 1.800781 0.109375 L 1.800781 0.109375 M 2.003906 0.109375 L 2.003906 0.109375 "/>
<path fill="none" stroke-width="0.065" stroke-linecap="round" stroke-linejoin="miter" stroke="rgb(0%, 0%, 100%)" stroke-opacity="1" stroke-miterlimit="10" d="M 1.742188 0.84375 L 1.742188 0.84375 M 1.742188 0.765625 L 1.742188 0.765625 M 1.742188 0.6875 L 1.742188 0.6875 M 1.742188 0.609375 L 1.742188 0.609375 "/>
<path fill="none" stroke-width="0.075" stroke-linecap="round" stroke-linejoin="miter" stroke="rgb(0%, 0%, 100%)" stroke-opacity="1" stroke-miterlimit="10" d="M 1.34375 1.507812 L 1.34375 1.507812 M 1.34375 1.109375 L 1.34375 1.109375 M 1.441406 1.507812 L 1.441406 1.507812 M 1.441406 1.109375 L 1.441406 1.109375 M 1.542969 1.507812 L 1.542969 1.507812 M 1.542969 1.109375 L 1.542969 1.109375 "/>
<path fill="none" stroke-width="0.024" stroke-linecap="round" stroke-linejoin="miter" stroke="rgb(0%, 0%, 100%)" stroke-opacity="1" stroke-miterlimit="10" d="M 1.34375 1.988281 L 1.34375 1.527344 M 1.441406 1.988281 L 1.441406 1.527344 M 1.542969 1.988281 L 1.542969 1.527344 M 1.34375 0.65625 L 1.34375 1.09375 M 1.394531 0.609375 L 1.34375 0.65625 M 1.730469 0.609375 L 1.394531 0.609375 M 1.445312 0.746094 L 1.441406 1.09375 M 1.492188 0.6875 L 1.445312 0.746094 M 1.730469 0.6875 L 1.492188 0.6875 M 1.542969 0.910156 L 1.542969 1.09375 M 1.574219 0.847656 L 1.542969 0.910156 M 1.730469 0.84375 L 1.574219 0.847656 M 2.03125 0.761719 L 1.753906 0.765625 M 2.042969 1.117188 L 2.03125 0.761719 M 1.742188 0.359375 L 1.695312 0.308594 M 1.992188 0.359375 L 1.742188 0.359375 M 1.695312 0.308594 L 1.703125 0.128906 M 2.042969 0.410156 L 1.992188 0.359375 M 2.03125 0.761719 L 2.042969 0.410156 M 1.992188 0.257812 L 2.042969 0.308594 M 2.140625 0.359375 L 2.144531 1.117188 M 2.09375 0.308594 L 2.140625 0.359375 M 2.042969 0.308594 L 2.09375 0.308594 M 2 0.128906 L 1.992188 0.257812 "/>
</svg>
