<?xml version="1.0" encoding="UTF-8"?>
<svg xmlns="http://www.w3.org/2000/svg" xmlns:xlink="http://www.w3.org/1999/xlink" width="7000" height="7000" viewBox="0 0 7000 7000">
<path fill="none" stroke-width="0.024" stroke-linecap="round" stroke-linejoin="miter" stroke="rgb(0%, 0%, 0%)" stroke-opacity="1" stroke-miterlimit="10" d="M 2.918571 1.624286 L 2.918571 1.624286 M 3.061429 1.624286 L 3.061429 1.624286 M 3.204286 1.624286 L 3.204286 1.624286 M 2.784286 2.045714 L 2.784286 2.045714 M 3.338571 2.045714 L 3.338571 2.045714 M 3.002857 0.155714 L 3.002857 0.155714 M 3.145714 0.155714 L 3.145714 0.155714 M 3.29 0.155714 L 3.29 0.155714 M 3.432857 0.155714 L 3.432857 0.155714 M 3.575714 0.155714 L 3.575714 0.155714 M 2.345714 2.87 L 2.345714 2.87 M 2.204286 2.87 L 2.204286 2.87 M 2.06 2.87 L 2.06 2.87 M 1.917143 2.87 L 1.917143 2.87 M 1.774286 2.87 L 1.774286 2.87 M 1.631429 2.87 L 1.631429 2.87 M 1.488571 2.87 L 1.488571 2.87 M 1.345714 2.87 L 1.345714 2.87 M 1.202857 2.87 L 1.202857 2.87 M 1.06 2.87 L 1.06 2.87 M 3.575714 2.87 L 3.575714 2.87 M 3.432857 2.87 L 3.432857 2.87 M 3.29 2.87 L 3.29 2.87 M 3.145714 2.87 L 3.145714 2.87 M 3.002857 2.87 L 3.002857 2.87 M 2.861429 2.87 L 2.861429 2.87 M 2.718571 2.87 L 2.718571 2.87 M 2.574286 2.87 L 2.574286 2.87 M 1.717143 0.155714 L 1.717143 0.155714 M 1.574286 0.155714 L 1.574286 0.155714 M 1.86 0.155714 L 1.86 0.155714 M 2.004286 0.155714 L 2.004286 0.155714 M 2.147143 0.155714 L 2.147143 0.155714 M 2.288571 0.155714 L 2.288571 0.155714 M 2.431429 0.155714 L 2.431429 0.155714 M 2.574286 0.155714 L 2.574286 0.155714 M 2.861429 0.155714 L 2.861429 0.155714 M 2.488571 1.207143 L 2.488571 1.207143 M 2.488571 1.095714 L 2.488571 1.095714 M 2.488571 0.982857 L 2.488571 0.982857 M 2.488571 0.87 L 2.488571 0.87 M 1.917143 2.155714 L 1.917143 2.155714 M 1.917143 1.584286 L 1.917143 1.584286 M 2.06 2.155714 L 2.06 2.155714 M 2.06 1.584286 L 2.06 1.584286 M 2.202857 2.155714 L 2.202857 2.155714 M 2.202857 1.584286 L 2.202857 1.584286 M 3.134286 0.3 L 2.134286 0.3 M 3.194286 0.368571 L 3.134286 0.3 M 3.204286 1.594286 L 3.194286 0.368571 M 2.134286 0.3 L 2.144286 0.184286 " transform="matrix(700, 0, 0, 700, 0, 0)"/>
</svg>
